<svg width="100" height="100" viewBox="0 0 100 100" fill="none" xmlns="http://www.w3.org/2000/svg">
<path d="M94.9594 14.927H66.3126C66.4216 14.5284 66.4848 14.1108 66.4848 13.6781V9.51531C66.4848 6.89848 64.3559 4.76953 61.7391 4.76953H38.26C35.6432 4.76953 33.5143 6.89848 33.5143 9.51531V13.6781C33.5143 14.1108 33.5774 14.5284 33.6865 14.927H5.03972C2.42289 14.927 0.293945 17.0559 0.293945 19.6728V56.3068C0.293945 58.9236 2.42289 61.0525 5.03972 61.0525H7.45989C7.35089 61.4514 7.28767 61.8687 7.28767 62.3014V90.4845C7.28767 93.1013 9.41661 95.2303 12.0334 95.2303H87.9657C90.5825 95.2303 92.7115 93.1013 92.7115 90.4845V62.3014C92.7115 61.8687 92.6483 61.4513 92.5392 61.0525H94.9594C97.5762 61.0525 99.7052 58.9236 99.7052 56.3068V19.6727C99.7052 17.0559 97.5762 14.927 94.9594 14.927ZM79.6188 57.5556V61.0525V64.0754C79.6188 64.764 79.0586 65.3243 78.37 65.3243H75.7056C75.017 65.3243 74.4567 64.764 74.4567 64.0754V61.0525V57.5556V52.3935C74.4567 51.7049 75.0171 51.1446 75.7056 51.1446H78.37C79.0586 51.1446 79.6188 51.7049 79.6188 52.3935V57.5556ZM37.0112 13.6781V9.51531C37.0112 8.8267 37.5714 8.26642 38.26 8.26642H61.7391C62.4277 8.26642 62.9879 8.8267 62.9879 9.51531V13.6781C62.9879 14.3667 62.4276 14.927 61.7391 14.927H38.26C37.5714 14.927 37.0112 14.3666 37.0112 13.6781ZM38.26 18.4238H61.7391H75.2892V47.6687C72.867 47.8806 70.9598 49.9172 70.9598 52.3935V57.5556H29.039V52.3935C29.039 49.9172 27.1318 47.8807 24.7094 47.6687V18.4238H38.26ZM25.5422 61.0525V64.0754C25.5422 64.764 24.9819 65.3243 24.2933 65.3243H21.6289C20.9403 65.3243 20.3801 64.764 20.3801 64.0754V61.0525V57.5556V52.3935C20.3801 51.7049 20.9403 51.1446 21.6289 51.1446H24.2933C24.9819 51.1446 25.5422 51.7049 25.5422 52.3935V57.5556V61.0525ZM5.03972 57.5556C4.35111 57.5556 3.79089 56.9953 3.79089 56.3068V19.6727C3.79089 18.9841 4.35117 18.4238 5.03972 18.4238H21.2126V47.6687C18.7904 47.8806 16.8832 49.9172 16.8832 52.3935V57.5556H12.0334H5.03972ZM89.2146 62.3014V90.4845C89.2146 91.1731 88.6542 91.7334 87.9657 91.7334H12.0334C11.3448 91.7334 10.7846 91.173 10.7846 90.4845V62.3014C10.7846 61.6128 11.3448 61.0525 12.0334 61.0525H16.8831V64.0755C16.8831 66.6923 19.0121 68.8213 21.6289 68.8213H24.2933C26.9101 68.8213 29.039 66.6923 29.039 64.0755V61.0525H70.9598V64.0755C70.9598 66.6923 73.0888 68.8213 75.7056 68.8213H78.37C80.9868 68.8213 83.1157 66.6923 83.1157 64.0755V61.0525H87.9657C88.6542 61.0525 89.2146 61.6128 89.2146 62.3014ZM96.2083 56.3067C96.2083 56.9953 95.648 57.5556 94.9594 57.5556H87.9657H83.1157V52.3934C83.1157 49.9171 81.2085 47.8806 78.7861 47.6686V18.4238H94.9594C95.648 18.4238 96.2082 18.9841 96.2082 19.6727V56.3067H96.2083Z" fill="white"/>
</svg>
