<svg width="100" height="100" viewBox="0 0 100 100" fill="none" xmlns="http://www.w3.org/2000/svg">
<path d="M90.4411 21.3337C89.7672 20.3857 89.0602 19.463 88.3234 18.5661C79.2214 7.48944 65.4221 0.412109 50.0003 0.412109C34.5783 0.412109 20.7789 7.48944 11.6767 18.5661C10.9394 19.463 10.2329 20.3857 9.55878 21.3337C3.80122 29.4329 0.412109 39.3283 0.412109 50.0001C0.412109 60.7331 3.84094 70.6806 9.65917 78.8051C10.3366 79.7507 11.0451 80.6725 11.7857 81.5665C20.8884 92.5677 34.6394 99.5883 50.0003 99.5883C65.3608 99.5883 79.1122 92.5677 88.2146 81.5665C88.955 80.6725 89.6637 79.7507 90.3409 78.8051C96.159 70.6806 99.588 60.7331 99.588 50.0001C99.588 39.3283 96.1991 29.4329 90.4411 21.3337ZM85.4812 20.5941C84.6919 21.1018 83.8636 21.5967 82.9928 22.0757C80.4071 23.4979 77.5654 24.73 74.5262 25.7636C73.3403 21.9953 71.8695 18.4867 70.1324 15.3285C67.943 11.3468 65.4338 8.1085 62.7006 5.67722C71.7292 8.26844 79.6321 13.5491 85.4812 20.5941ZM75.5414 35.7269C76.0417 35.7269 76.5154 35.8392 76.9431 36.0357C78.1048 36.5693 78.9155 37.7411 78.9155 39.1012C78.9155 40.1549 78.4294 41.0967 77.6703 41.7158C77.0892 42.1896 76.3481 42.475 75.5414 42.475C75.0714 42.475 74.6242 42.3784 74.2173 42.2039C73.0133 41.6881 72.1668 40.4919 72.1668 39.1011C72.1668 38.0164 72.6837 37.0521 73.4813 36.4344C74.0519 35.9927 74.7654 35.7269 75.5414 35.7269ZM51.7424 4.014C57.4646 4.783 62.8559 9.32783 67.0793 17.0076C68.7055 19.9641 70.0843 23.2542 71.1997 26.793C65.227 28.4653 58.6192 29.4109 51.7424 29.5477V4.014ZM51.7424 33.0324C58.9385 32.8943 65.8717 31.9013 72.1578 30.1405C72.3846 31.0207 72.5954 31.9147 72.7912 32.8202C70.375 33.8819 68.6828 36.2973 68.6828 39.1012C68.6828 42.5191 71.1958 45.3598 74.4712 45.8752C74.5104 46.7013 74.5381 47.5327 74.5536 48.3674H56.6604C56.0638 45.9316 54.1624 44.003 51.7424 43.3667V33.0324ZM72.1047 70.0639C65.8327 68.3117 58.918 67.3245 51.7424 67.1868V56.6336C54.0898 56.0168 55.9481 54.1838 56.6026 51.8518H74.5491C74.4136 58.2562 73.577 64.4258 72.1047 70.0639ZM72.8184 82.7087C72.8182 84.5694 71.3046 86.083 69.4444 86.083C69.404 86.083 69.3653 86.0782 69.3253 86.0768C68.0391 86.0314 66.9359 85.265 66.4067 84.1682C66.1929 83.726 66.0698 83.2322 66.0698 82.7087C66.0698 81.045 67.2808 79.6628 68.8664 79.3875C69.0545 79.3545 69.2469 79.3344 69.4441 79.3344C70.5312 79.3344 71.497 79.8531 72.1147 80.6539C72.5541 81.2242 72.8184 81.9352 72.8184 82.7087ZM48.2582 4.014V29.5477C41.3809 29.4109 34.7733 28.4653 28.8002 26.7934C29.0646 25.9549 29.3438 25.1302 29.6373 24.3213C29.7783 24.3299 29.9198 24.3356 30.0628 24.3356C33.8444 24.3356 36.9213 21.2587 36.9213 17.4771C36.9213 15.8212 36.3314 14.3009 35.3513 13.1146C39.1282 7.79372 43.5825 4.64222 48.2582 4.014ZM27.8426 30.1405C34.1284 31.9018 41.0621 32.8943 48.2582 33.0324V43.3667C45.8376 44.003 43.9368 45.9316 43.3397 48.3674H25.4464C25.566 41.9616 26.3863 35.7876 27.8426 30.1405ZM26.6885 17.4771C26.6885 15.6163 28.2021 14.1027 30.0628 14.1027C30.2273 14.1027 30.3874 14.1185 30.5457 14.1412C31.8174 14.3248 32.8601 15.2169 33.2598 16.4057C33.3731 16.7427 33.4371 17.1022 33.4371 17.4771C33.4371 18.9751 32.4551 20.2471 31.1012 20.6859C30.7737 20.7926 30.4252 20.8514 30.0628 20.8514C29.1253 20.8514 28.2767 20.4665 27.6647 19.8474C27.0619 19.2373 26.6885 18.4002 26.6885 17.4771ZM37.3 5.67728C35.6152 7.17555 34.0156 8.97983 32.5244 11.0772C31.7595 10.782 30.9301 10.6185 30.0628 10.6185C26.2812 10.6185 23.2042 13.6952 23.2042 17.4771C23.2042 19.8833 24.451 22.0026 26.3308 23.227C26.0311 24.0584 25.7447 24.9041 25.4741 25.7637C22.4349 24.7301 19.5932 23.4981 17.0073 22.0758C16.1367 21.5967 15.3082 21.1019 14.5188 20.5942C20.3678 13.5491 28.2709 8.26844 37.3 5.67728ZM12.3891 23.3647C13.3194 23.9728 14.2976 24.5618 15.3283 25.1288C18.1342 26.672 21.2173 28.0039 24.5123 29.1136C22.9566 35.0906 22.0836 41.6141 21.9617 48.3674H3.9265C4.25161 39.0773 7.33761 30.4766 12.3891 23.3647ZM25.8275 58.2734C26.7378 58.8782 27.3397 59.9118 27.3397 61.085C27.3397 61.9455 27.0132 62.7296 26.4806 63.3262C25.8624 64.0195 24.9655 64.4588 23.9663 64.4588H23.9658C23.6732 64.4588 23.3907 64.4172 23.1192 64.347C21.6677 63.9697 20.5916 62.6521 20.5916 61.085C20.5916 59.8228 21.2886 58.7218 22.3174 58.1433C22.8051 57.869 23.3668 57.7102 23.9658 57.7102C24.6538 57.7102 25.2934 57.9187 25.8275 58.2734ZM3.93322 51.8518H21.9665C21.9842 52.7377 22.0153 53.6202 22.0588 54.4979C19.2022 55.326 17.1073 57.9641 17.1073 61.085C17.1073 64.814 20.1006 67.8561 23.8109 67.9388C24.0418 69.0035 24.2933 70.0538 24.5653 71.0874C21.2503 72.2009 18.1495 73.5391 15.3288 75.0905C14.3372 75.6355 13.3944 76.2015 12.4962 76.7848C7.42128 69.6991 4.30133 61.1237 3.93322 51.8518ZM14.6384 79.5471C15.3919 79.0667 16.1807 78.5982 17.0073 78.1435C19.6114 76.7112 22.4747 75.472 25.5373 74.434C26.7124 78.1272 28.161 81.5694 29.8678 84.6717C32.0578 88.6536 34.5668 91.8926 37.3006 94.3241C28.3326 91.7502 20.4753 86.5214 14.6384 79.5471ZM48.2582 95.9865C42.5355 95.2172 37.1442 90.6726 32.9208 82.9932C31.3254 80.0926 29.9686 76.8703 28.8647 73.4081C34.8207 71.7463 41.4058 70.8078 48.2582 70.671V95.9865ZM48.2582 67.1867C41.0822 67.3245 34.1672 68.3117 27.8952 70.0638C27.6442 69.1015 27.4118 68.1233 27.1981 67.1318C29.3543 65.9743 30.8239 63.6977 30.8239 61.085C30.8239 57.8455 28.5664 55.1252 25.5425 54.4109C25.499 53.5628 25.4694 52.7089 25.4507 51.8518H43.3975C44.0524 54.1839 45.9108 56.0168 48.2582 56.6336V67.1867ZM48.2582 52.8844C47.8279 52.6234 47.4593 52.2711 47.1825 51.8518C46.8316 51.3197 46.626 50.6843 46.626 50.0001C46.626 49.4082 46.7804 48.8517 47.0496 48.3674C47.3359 47.8516 47.7548 47.4208 48.2582 47.1158C48.7673 46.8069 49.3625 46.6258 50.0003 46.6258C50.6381 46.6258 51.2328 46.8069 51.7424 47.1158C52.2458 47.4208 52.6647 47.8516 52.951 48.3674C53.2202 48.8517 53.3746 49.4082 53.3746 50.0001C53.3746 50.6843 53.1686 51.3197 52.8177 51.8518C52.5413 52.2711 52.1727 52.6234 51.7424 52.8844C51.2328 53.1933 50.6381 53.3744 50.0003 53.3744C49.3625 53.3744 48.7673 53.1933 48.2582 52.8844ZM51.7424 95.9865V70.671C58.5948 70.8078 65.1797 71.7462 71.1356 73.4081C70.8657 74.2538 70.5822 75.0871 70.2825 75.9037C70.0073 75.8693 69.728 75.8501 69.4437 75.8501C65.6623 75.8501 62.5856 78.9271 62.5856 82.7087C62.5856 84.4723 63.2552 86.0825 64.3533 87.2992C60.6402 92.3707 56.2962 95.3745 51.7424 95.9865ZM62.6996 94.3242C64.3064 92.8947 65.8349 91.1851 67.2672 89.2111C67.9516 89.4406 68.6833 89.5673 69.4444 89.5673C73.2256 89.5673 76.3025 86.4903 76.3027 82.7087C76.3025 80.4512 75.2058 78.4457 73.5172 77.195C73.8504 76.2923 74.1647 75.3706 74.4626 74.4341C77.5257 75.472 80.3889 76.7112 82.9928 78.1435C83.8194 78.5982 84.6085 79.0667 85.362 79.5476C79.5248 86.5219 71.6678 91.7502 62.6996 94.3242ZM87.5039 76.7848C86.6057 76.2015 85.6628 75.6355 84.6718 75.0905C81.8511 73.5391 78.75 72.2009 75.4347 71.0874C77.0062 65.1205 77.8959 58.6028 78.0338 51.8518H96.0671C96.0913 51.2379 96.1037 50.6202 96.1037 50.0001V50.0006C96.1037 50.6202 96.0912 51.2374 96.0671 51.8518C95.6988 61.1237 92.5788 69.6991 87.5039 76.7848ZM96.0736 48.3674H78.0384C78.0212 47.415 77.9892 46.467 77.9421 45.5247C80.5431 44.5489 82.3997 42.0386 82.3997 39.1012C82.3997 35.5543 79.6931 32.6274 76.237 32.2775C76.0079 31.2076 75.7585 30.1524 75.4881 29.1136C78.7831 28.0039 81.866 26.672 84.6716 25.1287C85.7026 24.5617 86.6807 23.9723 87.6113 23.3646C92.6625 30.4766 95.7488 39.0768 96.0736 48.3674H97.2136H96.0736Z" fill="white"/>
</svg>
