<svg width="100" height="100" viewBox="0 0 100 100" fill="none" xmlns="http://www.w3.org/2000/svg">
<path d="M50 48.252C43.6854 48.252 38.5479 53.3893 38.5479 59.7044C38.5479 63.7462 40.7102 67.4943 44.1414 69.5437V78.8759H55.8588V69.5437C59.2901 67.4942 61.4526 63.7462 61.4526 59.7044C61.4526 53.3893 56.315 48.252 50 48.252ZM53.3682 66.9111L52.361 67.3829V75.3782H47.639V67.3829L46.6319 66.9111C43.8459 65.6063 42.0455 62.7776 42.0455 59.7044C42.0455 55.3182 45.614 51.7497 50 51.7497C54.3862 51.7497 57.955 55.3181 57.955 59.7044C57.955 62.7776 56.1546 65.6063 53.3682 66.9111Z" fill="white"/>
<path d="M72.5999 34.5206V22.608C72.5391 16.6195 70.1615 10.9994 65.9048 6.78276C61.6449 2.56309 55.9966 0.239258 50 0.239258C44.0037 0.239258 38.3554 2.56315 34.096 6.78304C29.8395 10.9995 27.4619 16.6195 27.4011 22.6256V28.8663H30.8988V22.6431C31.0042 12.2184 39.5731 3.73687 50 3.73687C60.4276 3.73687 68.9968 12.2184 69.1022 22.6255V34.5205H49.3625H10.6982V60.8608C10.8041 71.2748 14.9391 81.0487 22.3415 88.3813C29.7494 95.7197 39.5722 99.7614 50.0005 99.7614C60.4287 99.7614 70.2515 95.7197 77.6595 88.3813C85.0619 81.0487 89.1966 71.2748 89.3022 60.8428V34.5206H72.5999ZM85.8045 60.8252C85.6067 80.366 69.545 96.2638 50.0005 96.2638C30.4563 96.2638 14.3943 80.3661 14.196 60.8428V38.0184H27.4011H72.5999H85.8046V60.8252H85.8045Z" fill="white"/>
</svg>
