<?xml version="1.0" standalone="no"?>
<!DOCTYPE svg PUBLIC "-//W3C//DTD SVG 20010904//EN"
 "http://www.w3.org/TR/2001/REC-SVG-20010904/DTD/svg10.dtd">
<svg version="1.0" xmlns="http://www.w3.org/2000/svg"
 width="225.000000pt" height="225.000000pt" viewBox="0 0 225.000000 225.000000"
 preserveAspectRatio="xMidYMid meet">
<metadata>
Created by potrace 1.14, written by Peter Selinger 2001-2017
</metadata>
<g transform="translate(0.000000,225.000000) scale(0.100000,-0.100000)"
fill="#000000" stroke="none">
<path d="M877 1843 c-11 -10 -8 -143 2 -143 5 0 12 14 16 30 4 17 21 46 40 65
29 31 38 35 84 35 l51 0 0 -64 0 -64 -62 5 c-53 3 -70 0 -103 -19 -54 -31 -88
-97 -82 -158 7 -63 49 -97 168 -135 117 -38 149 -65 149 -129 0 -25 4 -46 8
-46 15 0 49 44 55 71 8 34 -8 92 -33 114 -19 17 -20 31 -20 222 l0 203 49 0
c60 0 101 -29 125 -90 9 -22 18 -40 21 -40 3 0 5 34 5 75 l0 75 -233 0 c-129
0 -237 -3 -240 -7z m162 -154 l31 -11 0 -109 c0 -60 -2 -109 -4 -109 -26 0
-142 47 -166 66 -40 34 -43 98 -6 133 39 37 93 48 145 30z"/>
<path d="M1205 1480 c-16 -7 -12 -9 18 -9 56 -1 91 -39 82 -89 -14 -77 -88
-167 -161 -198 -94 -40 -151 12 -109 99 l16 32 -20 -23 c-27 -32 -42 -88 -31
-117 28 -74 158 -54 268 41 104 89 140 229 66 263 -29 13 -100 14 -129 1z"/>
<path d="M1328 1109 c-28 -16 -21 -52 17 -89 19 -19 35 -42 35 -51 0 -25 -30
-32 -52 -13 -26 24 -36 8 -11 -18 41 -40 107 6 81 56 -6 11 -23 30 -39 44 -43
36 -32 74 14 50 26 -14 36 1 13 18 -23 16 -35 17 -58 3z"/>
<path d="M1688 1104 c-35 -18 -48 -43 -48 -89 0 -65 69 -110 131 -85 39 16 59
46 59 88 0 44 -14 68 -50 87 -36 19 -57 18 -92 -1z m105 -36 c41 -49 7 -122
-58 -122 -61 0 -94 60 -64 115 22 42 89 46 122 7z"/>
<path d="M30 1100 c0 -5 9 -10 20 -10 18 0 20 -7 20 -80 0 -47 4 -80 10 -80 6
0 10 33 10 80 0 73 2 80 20 80 11 0 20 5 20 10 0 6 -22 10 -50 10 -27 0 -50
-4 -50 -10z"/>
<path d="M363 1020 c-27 -59 -37 -90 -28 -90 7 0 18 14 25 30 11 26 18 30 50
30 32 0 39 -4 50 -30 7 -16 18 -30 26 -30 9 0 -1 29 -28 90 -23 50 -44 90 -47
90 -3 0 -25 -40 -48 -90z m65 15 c11 -24 10 -25 -18 -25 -28 0 -29 1 -18 25 6
14 14 25 18 25 4 0 12 -11 18 -25z"/>
<path d="M747 1100 c-9 -27 -26 -164 -21 -169 9 -10 24 23 24 54 1 57 15 57
43 -1 15 -30 31 -53 35 -50 4 3 19 27 32 55 13 28 27 51 30 51 4 0 10 -23 12
-50 5 -49 13 -69 23 -59 6 7 -17 179 -24 179 -3 -1 -21 -33 -39 -73 l-34 -72
-38 75 c-23 46 -40 69 -43 60z"/>
<path d="M2070 1023 c0 -107 18 -128 22 -26 l3 66 55 -66 c30 -36 58 -66 63
-66 4 -1 7 40 7 89 0 53 -4 90 -10 90 -6 0 -10 -29 -10 -67 l-1 -68 -64 70
-64 70 -1 -92z"/>
<path d="M1111 851 c-17 -18 -32 -40 -35 -49 -10 -32 -162 -110 -191 -98 -24
9 -17 33 13 44 l27 10 -25 1 c-14 1 -54 -13 -88 -29 -72 -34 -84 -36 -76 -15
8 19 -5 19 -30 0 -23 -18 -36 -19 -36 -5 0 6 16 20 37 32 20 12 31 24 25 26
-17 5 -112 -39 -159 -75 l-43 -33 26 41 c32 51 25 60 -18 24 -36 -30 -50 -19
-24 20 20 31 13 31 -44 -1 -34 -19 -39 -24 -17 -19 22 4 27 2 27 -14 0 -27 17
-36 37 -19 19 15 18 13 -25 -70 -43 -83 -36 -101 12 -29 36 55 85 101 134 126
22 12 23 11 12 -8 -13 -26 8 -38 38 -22 13 7 22 7 30 -1 7 -7 27 -3 67 16 32
14 59 26 60 26 1 0 5 -9 8 -20 8 -30 64 -26 132 10 69 36 75 37 45 5 -35 -37
-18 -41 31 -6 52 38 78 42 55 9 -9 -12 -16 -26 -16 -30 0 -15 45 -8 75 12 36
24 46 25 39 5 -4 -8 1 -17 10 -21 16 -6 39 0 107 30 36 15 37 15 32 -4 -8 -29
19 -34 64 -12 21 11 48 22 60 26 18 6 21 4 16 -15 -6 -21 -5 -21 41 6 46 27
71 30 41 5 -20 -16 -19 -40 0 -40 9 0 29 7 45 15 25 13 29 13 34 0 3 -8 17
-15 31 -15 14 0 25 -3 25 -6 0 -4 -14 -33 -32 -65 -30 -55 -33 -80 -8 -64 6 4
21 28 32 54 23 54 41 77 83 102 33 21 17 26 -18 7 -24 -12 -77 -19 -90 -11
-14 8 15 33 39 33 12 0 26 5 29 10 11 18 -33 11 -91 -15 -32 -14 -59 -23 -61
-21 -3 2 1 13 8 25 19 30 4 37 -38 17 -28 -13 -38 -14 -44 -5 -6 10 -23 6 -71
-14 -35 -15 -66 -27 -69 -27 -3 0 -4 11 -1 25 2 14 2 25 -2 25 -3 0 -31 -11
-62 -25 -31 -14 -65 -25 -75 -25 -50 0 10 65 69 75 23 4 45 11 48 17 4 6 -8 7
-31 2 l-37 -7 17 27 c27 41 9 44 -33 4 -20 -19 -46 -38 -57 -42 -15 -6 -17 -9
-6 -16 10 -6 3 -15 -27 -34 -42 -27 -62 -32 -62 -18 0 4 5 13 12 20 20 20 -4
35 -37 22 -15 -6 -30 -8 -32 -6 -3 3 16 28 43 56 35 37 44 54 36 62 -8 8 -19
3 -41 -21z"/>
<path d="M112 713 c48 -2 129 -2 180 0 51 1 12 3 -87 3 -99 0 -141 -2 -93 -3z"/>
<path d="M1952 713 c48 -2 129 -2 180 0 51 1 12 3 -87 3 -99 0 -141 -2 -93 -3z"/>
</g>
</svg>
